HIERARCHY
ROOT Hips
{
    OFFSET 0.0 0.0 0.0
    CHANNELS 6 Xposition Yposition Zposition Zrotation Xrotation Yrotation
    JOINT LeftHipJoint
    {
        OFFSET 0.1 0.0 0.0
        CHANNELS 3 Zrotation Xrotation Yrotation
        JOINT LeftUpLeg
        {
            OFFSET 120.3080280478327 0.0 0.0
            CHANNELS 3 Zrotation Xrotation Yrotation
            JOINT LeftLeg
            {
                OFFSET 0.0 0.0 -402.42527121865766
                CHANNELS 3 Zrotation Xrotation Yrotation
                JOINT LeftFoot
                {
                    OFFSET 0.0 0.0 -389.3938392644692
                    CHANNELS 3 Zrotation Xrotation Yrotation
                    End Site
                    {
                        OFFSET 0.0 -0.1 0.0
                    }
                }
            }
        }
    }
    JOINT LowerBack
    {
        OFFSET 0.0 0.0 0.1
        CHANNELS 3 Zrotation Xrotation Yrotation
        JOINT Spine
        {
            OFFSET 0.0 0.0 217.1744104932124
            CHANNELS 3 Zrotation Xrotation Yrotation
            JOINT Spine1
            {
                OFFSET 0.0 0.0 250.45289622889146
                CHANNELS 3 Zrotation Xrotation Yrotation
                JOINT LeftShoulder
                {
                    OFFSET 0.1 0.0 0.0
                    CHANNELS 3 Zrotation Xrotation Yrotation
                    JOINT LeftArm
                    {
                        OFFSET 139.66040269904425 0.0 0.0
                        CHANNELS 3 Zrotation Xrotation Yrotation
                        JOINT LeftForeArm
                        {
                            OFFSET 252.5614598644354 0.0 0.0
                            CHANNELS 3 Zrotation Xrotation Yrotation
                            JOINT LeftHand
                            {
                                OFFSET 244.52565372849318 0.0 0.0
                                CHANNELS 3 Zrotation Xrotation Yrotation
                                End Site
                                {
                                    OFFSET 0.1 0.0 0.0
                                }
                            }
                        }
                    }
                }
                JOINT Neck
                {
                    OFFSET 0.0 0.0 0.1
                    CHANNELS 3 Zrotation Xrotation Yrotation
                    JOINT Neck1
                    {
                        OFFSET 0.0 0.0 106.21420999218539
                        CHANNELS 3 Zrotation Xrotation Yrotation
                        End Site
                        {
                            OFFSET 0.0 0.0 117.8782911624236
                        }
                    }
                }
                JOINT RightShoulder
                {
                    OFFSET -0.1 0.0 0.0
                    CHANNELS 3 Zrotation Xrotation Yrotation
                    JOINT RightArm
                    {
                        OFFSET -139.66040269904425 0.0 0.0
                        CHANNELS 3 Zrotation Xrotation Yrotation
                        JOINT RightForeArm
                        {
                            OFFSET -252.5614598644354 0.0 0.0
                            CHANNELS 3 Zrotation Xrotation Yrotation
                            JOINT RightHand
                            {
                                OFFSET -244.52565372849318 0.0 0.0
                                CHANNELS 3 Zrotation Xrotation Yrotation
                                End Site
                                {
                                    OFFSET -0.1 0.0 0.0
                                }
                            }
                        }
                    }
                }
            }
        }
    }
    JOINT RightHipJoint
    {
        OFFSET -0.1 0.0 0.0
        CHANNELS 3 Zrotation Xrotation Yrotation
        JOINT RightUpLeg
        {
            OFFSET -120.3080280478327 0.0 0.0
            CHANNELS 3 Zrotation Xrotation Yrotation
            JOINT RightLeg
            {
                OFFSET 0.0 0.0 -402.42527121865766
                CHANNELS 3 Zrotation Xrotation Yrotation
                JOINT RightFoot
                {
                    OFFSET 0.0 0.0 -389.3938392644692
                    CHANNELS 3 Zrotation Xrotation Yrotation
                    End Site
                    {
                        OFFSET 0.0 -0.1 0.0
                    }
                }
            }
        }
    }
}
MOTION
Frames: 9
Frame Time: 0.03333333333333333
0.0 0.0 799.2145264931581 23.520211923408436 -0.7366406855595663 4.132776344637629 0.0 0.0 1.987846675914698e-16 -0.16336621097897722 -15.792947676619775 1.690423116848985 1.3508442635057059 30.454130431119776 -3.028043207713645 0.0 0.0 0.0 0.0 0.0 1.987846675914698e-16 -0.008811390657811983 -0.8628075216033932 -1.9070820070585897 0.6084602673587732 -5.154260069133522e-17 -3.476043879628225e-16 3.1805546814635164e-15 -4.9696166897867443e-17 4.9696166897867443e-17 -38.03598015718564 14.236152691599141 84.10213798975377 -22.527541089435577 2.460331766274445e-16 1.5047970623379504e-14 0.0 0.0 -1.0933156717530838e-15 3.1805546814635164e-15 -4.9696166897867443e-17 4.9696166897867443e-17 0.5123361918400274 -6.726322555405588 1.917666109532684 3.1805546814635164e-15 -4.9696166897867443e-17 4.9696166897867443e-17 24.308800322893156 16.72418544869031 -79.30600102551863 34.83578015543581 6.664442402194779e-15 2.124301493373818e-14 0.0 0.0 -1.5902773407317584e-15 0.0 0.0 1.987846675914698e-16 -0.13190807438962507 -12.52040499265314 -2.383679669230187 -0.9083697166889204 27.001748646260737 -1.1613721965147383 0.0 0.0 0.0
0.0 0.0 799.2145264931581 23.609180766824664 -0.6351024995906308 4.06522951263861 0.0 -2.9817700138720465e-16 0.0 -0.1577334007254823 -15.955995771341875 1.752444409824812 1.3738571240257549 30.498392066964495 -2.96526309765515 -5.517382872562698e-33 -1.5902773407317584e-15 -3.975693351829396e-16 0.0 -2.9817700138720465e-16 0.0 -0.008643744736657783 -0.8865990488397832 -1.8300175611302767 0.7251669989368446 9.939034361622376e-17 -6.289779103890936e-19 -3.1805546814635168e-15 1.3793457181406746e-33 -4.969616689786745e-17 -37.61414904708668 13.972882552536285 83.82528466340187 -22.68104789253008 8.026346642169476e-15 8.50299065388383e-15 1.5902773407317584e-15 -9.655420026984722e-33 -6.957463365701443e-16 -3.1805546814635168e-15 1.3793457181406746e-33 -4.969616689786745e-17 0.3654768607114552 -6.772583993736454 1.8789306256382377 -3.1805546814635168e-15 1.3793457181406746e-33 -4.969616689786745e-17 23.306271454363657 15.98519172958331 -78.84271891513411 35.32915932593196 -6.891070932096402e-15 -1.1157236163094669e-14 0.0 0.0 0.0 0.0 -2.9817700138720465e-16 0.0 -0.1270768303488741 -12.639267852215612 -2.2813029614075284 -0.8706899532842444 27.023004432237975 -1.1072943412286913 0.0 0.0 0.0
0.0 0.0 799.2145264931581 23.5944650881782 -0.7240656857686196 4.036267765658741 0.0 0.0 1.987846675914698e-16 -0.1643793285730582 -15.95264776437327 1.8140457134610497 1.4185920322932504 30.397544126526675 -2.9494992924883285 0.0 0.0 0.0 0.0 0.0 1.987846675914698e-16 -0.009057365645229312 -0.8923346406403648 -1.8348110446305628 0.9114797860967128 -7.905743549149327e-19 -9.938918960104332e-17 -1.5086593792163628e-34 -4.969616689786745e-17 -3.4787316828507215e-16 -37.108064249972095 13.9401786438032 83.89010075467269 -22.422146446500786 -4.152705308027686e-15 -1.1766286340996303e-14 0.0 0.0 2.0375428428125655e-15 -1.5086593792163628e-34 -4.969616689786745e-17 -3.4787316828507215e-16 0.2369202863568056 -6.713844276275326 1.8283626834116316 -1.5086593792163628e-34 -4.969616689786745e-17 -3.4787316828507215e-16 22.4518377253442 15.357361093802789 -78.4358190119582 35.792029136295916 3.2158740789185265e-15 -2.109205816388285e-14 0.0 0.0 0.0 0.0 0.0 1.987846675914698e-16 -0.13011327868331743 -12.452361030578082 -2.181189167092506 -0.8032670689529895 26.89264878945201 -1.2236266818165038 3.1805546814635164e-15 2.2069531490250793e-32 7.951386703658791e-16
0.0 0.0 799.2145264931581 23.57877942170799 -0.8329765873156741 3.9908712553963466 -7.758819664541295e-34 -9.93923337957349e-17 -8.945310041616142e-16 -0.1730584033743925 -15.862972132605119 1.9108259049982315 1.501948577757231 30.493564849295318 -2.9567192229538666 0.0 0.0 0.0 -7.758819664541295e-34 -9.93923337957349e-17 -8.945310041616142e-16 -0.008612399932058397 -0.8014776811931223 -1.8489811120554627 1.056870263417151 -5.448012343373163e-16 2.038179301710517e-16 -1.5086593792163628e-34 -3.4787316828507215e-16 -4.969616689786745e-17 -37.15341516312711 13.742439691499568 83.77578178060915 -22.46440154831919 1.349496676855412e-15 1.769732131258346e-14 -3.1805546814635164e-15 1.3793457181406746e-33 -4.9696166897867443e-17 -1.5086593792163628e-34 -3.4787316828507215e-16 -4.969616689786745e-17 0.22581441795347934 -6.659841153098652 1.8443826246658293 -1.5086593792163628e-34 -3.4787316828507215e-16 -4.969616689786745e-17 21.68452599433079 14.661593355169531 -77.96760515648432 36.4585160365523 4.051978665965191e-15 -8.031742870933988e-15 0.0 0.0 -1.5902773407317584e-15 -7.758819664541295e-34 -9.93923337957349e-17 -8.945310041616142e-16 -0.13591358010201238 -12.295474413520926 -2.0527131584843104 -0.724409925335106 27.017253480764413 -1.4119683109926908 0.0 0.0 -3.975693351829396e-16
0.0 0.0 799.2145264931581 23.611133518288888 -0.8787700651878386 3.906787496604118 0.0 0.0 9.93923337957349e-17 -0.17069785447565872 -15.923214222942333 2.013600122859124 1.56771961712119 30.68106170107439 -2.9346763270712435 0.0 0.0 -1.5902773407317584e-15 0.0 0.0 9.93923337957349e-17 -0.00835687995524727 -0.7917235126957068 -1.7635189652163596 1.2134701156317678 2.5004564936023443e-16 1.46448896832999e-16 0.0 0.0 -9.93923337957349e-17 -37.09105753314301 13.539677068307611 83.66999045098925 -22.381779049146115 -1.4828802432265615e-15 -6.986483958122365e-16 0.0 0.0 -2.0375428428125655e-15 0.0 0.0 -9.93923337957349e-17 0.11922624053877491 -6.62030360301682 1.7746682558272298 0.0 0.0 -9.93923337957349e-17 20.66036924757844 13.786608383094393 -77.45965537966892 37.14466110544537 -2.0019071424753003e-15 4.027930480589923e-15 0.0 0.0 -2.3854160110976376e-15 0.0 0.0 9.93923337957349e-17 -0.1328762351080279 -12.240613714545965 -1.8602825406551078 -0.6335185878256241 27.07299670407377 -1.543878732499834 0.0 0.0 0.0
0.0 0.0 799.2145264931581 23.700404970839294 -0.920347157353777 3.8638777389668832 0.0 0.0 -4.969616689786745e-17 -0.1554430015663017 -16.125769087219318 2.078842088327049 1.5899500407187395 31.014411940962948 -2.9646455914737624 0.0 0.0 3.975693351829396e-16 0.0 0.0 -4.969616689786745e-17 -0.007471771454184569 -0.7874290436294413 -1.6364179429298493 1.2950629940742824 -4.472369388509247e-16 5.054688798606465e-18 0.0 0.0 -9.93923337957349e-17 -36.85144477362948 13.836727089414389 83.87311297542875 -22.262214943503583 4.04175365587392e-15 -4.067062041697073e-15 0.0 0.0 -1.7393658414253607e-15 0.0 0.0 -9.93923337957349e-17 -0.030454104055844568 -6.6380858254187896 1.6845602045547352 0.0 0.0 -9.93923337957349e-17 20.080129758391546 13.625174310728303 -77.37864373040595 37.623201562497336 1.9089566124533388e-14 -3.1428974216331905e-15 0.0 0.0 -7.951386703658792e-16 0.0 0.0 -4.969616689786745e-17 -0.11982647872057993 -12.271877179499585 -1.7692081507541024 -0.617767454788638 27.031459180346893 -1.579102489192969 0.0 0.0 0.0
0.0 0.0 799.2145264931581 23.74322841128638 -0.9605113985638982 3.896039299352146 0.0 0.0 0.0 -0.13370075031532577 -16.175617036219162 2.0106296864678384 1.5125097330900872 31.212631699247307 -2.925610746854124 0.0 0.0 3.975693351829396e-16 0.0 0.0 0.0 -0.0066804535982455384 -0.8199375623084079 -1.655360731641326 1.4555154090493883 3.541572287622048e-16 4.925030953834086e-16 0.0 0.0 -9.93923337957349e-17 -36.6531357788447 13.998145018293064 83.84183652364138 -22.178690592730497 -1.2859300673911336e-15 -9.975252612318866e-15 0.0 0.0 -2.658744929035908e-15 0.0 0.0 -9.93923337957349e-17 -0.23333252986087957 -6.519640701056607 1.6190052478652461 0.0 0.0 -9.93923337957349e-17 19.388039904188453 13.25364546658793 -76.90295676259257 38.45143248542615 1.3880822933730047e-16 1.0056839120382862e-14 0.0 0.0 -1.5902773407317584e-15 0.0 0.0 0.0 -0.10201383329313475 -12.14823063472444 -1.7946850218832233 -0.6630533111673347 26.754577544685834 -1.4598321113108246 -3.1805546814635164e-15 9.939233379573489e-17 2.758691436281349e-33
0.0 0.0 799.2145264931581 23.752634092567128 -0.9959713942390608 3.919081764444415 0.0 0.0 9.93923337957349e-17 -0.12850607528755514 -16.330948845431553 1.899991422386472 1.4478623232813224 31.505427164829165 -2.8158849154371945 1.3793457181406746e-33 -1.9878466759146977e-16 7.951386703658791e-16 0.0 0.0 9.93923337957349e-17 -0.00628079117702054 -0.8099929981413176 -1.5442170659167709 1.4824159645588848 3.9882182335264347e-16 9.424099698560161e-17 -3.1805546814635168e-15 3.975693351829396e-16 -9.939233379573489e-17 -36.37185831948104 14.299246075642806 83.78538652284193 -22.148664242399356 -2.6244167713143923e-16 -6.938288270952342e-15 0.0 0.0 -3.478731682850721e-16 -3.1805546814635168e-15 3.975693351829396e-16 -9.939233379573489e-17 -0.44560018658517647 -6.3558806909312455 1.4064557734683774 -3.1805546814635168e-15 3.975693351829396e-16 -9.939233379573489e-17 18.655195961257274 13.274461279730527 -76.79282277471526 39.52481508856352 8.137279569012849e-15 3.835636305746673e-15 0.0 0.0 2.3854160110976376e-15 0.0 0.0 9.93923337957349e-17 -0.0970163455350933 -12.135463498340448 -1.9244510336627971 -0.7409064041587367 26.7778159078281 -1.2441407007109353 0.0 0.0 0.0
0.0 0.0 799.2145264931581 23.747347691301343 -1.093000824378172 3.9303342416324765 1.2069275033730902e-33 3.975693351829396e-16 -3.4787316828507215e-16 -0.11545985073802748 -16.463140052101377 1.9156507182627789 1.4366773529410308 31.677225506718997 -2.839001512452299 0.0 0.0 -3.975693351829396e-16 1.2069275033730902e-33 3.975693351829396e-16 -3.4787316828507215e-16 -0.005006655471683976 -0.7235337727875377 -1.4893791577357924 1.6137706341664075 -9.238409476768423e-17 4.983120663654332e-16 0.0 -9.93923337957349e-17 0.0 -36.55702547039971 14.62460595781207 83.89314753651125 -21.909145334777893 -9.56896699312589e-16 -3.4248005502611456e-15 0.0 0.0 -5.963540027744094e-16 0.0 -9.93923337957349e-17 0.0 -0.6026589778710103 -6.296779578170741 1.3739149676671074 0.0 -9.93923337957349e-17 0.0 18.169696998700584 13.083238712699748 -76.60705579234511 40.13730495998348 4.883482241034366e-15 -5.1702264563942906e-15 6.3611093629270335e-15 -1.3241718894150476e-31 -2.3854160110976376e-15 1.2069275033730902e-33 3.975693351829396e-16 -3.4787316828507215e-16 -0.08662700193668693 -12.116362251478485 -2.0753689866033236 -0.842533975330387 26.797014910134326 -1.0890862386280746 0.0 0.0 0.0
